PathFileType	4	(X/Y/Z)	/Users/itak/Documents/Research/Walk-IL/dataset/trc/00156_00007.trc
DataRate	CameraRate	NumFrames	NumMarkers	Units	OrigDataRate	OrigDataStartFrame	OrigNumFrames
100.000000	100.000000	4	53	mm	100.000000	62	498
Frame#	Time	RPSI			LPSI			L3			STRN			T10			C7			CLAV			RBAK			LBAK			LSHO			LUPA			LAEL			LAOL			LWTS			LWPS			LFRA			LHPS			LHTS			RSHO			RUPA			RAEL			RAOL			RWTS			RWPS			RFRA			RIFD			RHTS			RHPS			RBHD			LFHD			RFHD			LBHD			LHIP			RHIP			RASI			LASI			LKNE			LTHI			LANK			LTIP			LTOE			LMT1			LMT5			LHEE			RKNE			RTHI			RANK			RTIP			RTOE			RMT1			RMT5			RHEE			LIFD			
		X1	Y1	Z1	X2	Y2	Z2	X3	Y3	Z3	X4	Y4	Z4	X5	Y5	Z5	X6	Y6	Z6	X7	Y7	Z7	X8	Y8	Z8	X9	Y9	Z9	X10	Y10	Z10	X11	Y11	Z11	X12	Y12	Z12	X13	Y13	Z13	X14	Y14	Z14	X15	Y15	Z15	X16	Y16	Z16	X17	Y17	Z17	X18	Y18	Z18	X19	Y19	Z19	X20	Y20	Z20	X21	Y21	Z21	X22	Y22	Z22	X23	Y23	Z23	X24	Y24	Z24	X25	Y25	Z25	X26	Y26	Z26	X27	Y27	Z27	X28	Y28	Z28	X29	Y29	Z29	X30	Y30	Z30	X31	Y31	Z31	X32	Y32	Z32	X33	Y33	Z33	X34	Y34	Z34	X35	Y35	Z35	X36	Y36	Z36	X37	Y37	Z37	X38	Y38	Z38	X39	Y39	Z39	X40	Y40	Z40	X41	Y41	Z41	X42	Y42	Z42	X43	Y43	Z43	X44	Y44	Z44	X45	Y45	Z45	X46	Y46	Z46	X47	Y47	Z47	X48	Y48	Z48	X49	Y49	Z49	X50	Y50	Z50	X51	Y51	Z51	X52	Y52	Z52	X53	Y53	Z53	

63	0.62	-1321.165283203125	1126.4033203125	-509.3840637207031	-1320.239501953125	1126.391479492188	-643.8563232421875	-1327.811157226562	1156.34912109375	-578.9990234375	-1111.817138671875	1357.028442382812	-579.5369873046875	-1365.970947265625	1307.12255859375	-581.6536254882812	-1331.612426757812	1599.606689453125	-600.1439208984375	-1148.587646484375	1491.913696289062	-587.1655883789062	-1387.984497070312	1417.317260742188	-508.848388671875	-1336.855834960938	1578.01318359375	-702.101318359375	-1249.740478515625	1561.630615234375	-769.1265258789062	-1270.33154296875	1427.987060546875	-835.8792724609375	-1255.577270507812	1206.564331054688	-848.7593383789062	-1320.42431640625	1196.1474609375	-790.6587524414062	-1153.361572265625	952.1201782226562	-795.927001953125	-1233.990112304688	924.4593505859375	-821.3453369140625	-1238.23388671875	1090.406127929688	-848.1893310546875	-1204.001586914062	849.918701171875	-818.4907836914062	-1137.755249023438	863.5509643554688	-802.9905395507812	-1279.463134765625	1584.565795898438	-417.9037475585938	-1298.518920898438	1513.186279296875	-352.3697814941406	-1309.76123046875	1217.789306640625	-325.5838317871094	-1317.885986328125	1216.294799804688	-422.3717956542969	-1168.857299804688	973.8212890625	-338.6812744140625	-1242.927856445312	957.6934814453125	-306.1566467285156	-1287.189697265625	1144.723266601562	-309.6054382324219	-1145.823120117188	779.2858276367188	-355.4075012207031	-1140.680297851562	865.292236328125	-332.7793579101562	-1206.932373046875	857.7003784179688	-301.5123291015625	-1309.125610351562	1760.087158203125	-522.5126342773438	-1151.09521484375	1847.755004882812	-648.1553955078125	-1155.999267578125	1849.464721679688	-518.4913940429688	-1312.377197265625	1761.400024414062	-658.1752319335938	-1229.769775390625	1035.296752929688	-749.9387817382812	-1197.64794921875	1030.325439453125	-390.197998046875	-1114.202392578125	1100.458374023438	-441.2811889648438	-1121.190185546875	1098.48291015625	-708.6636962890625	-1218.357666015625	533.4591674804688	-716.0592041015625	-1234.84521484375	680.037841796875	-744.7166748046875	-1349.851928710938	35.69527053833008	-703.9100952148438	-1328.463623046875	290.5640258789062	-737.9923706054688	-1117.945678710938	36.07516860961914	-645.9161987304688	-1200.831665039062	40.7015380859375	-613.9727172851562	-1224.572509765625	33.07886123657227	-730.0926513671875	-1417.797241210938	37.05989456176758	-641.5949096679688	-1232.50048828125	536.8408813476562	-420.9361877441406	-1191.798828125	814.2333374023438	-396.3311157226562	-1349.027099609375	28.06293487548828	-437.3231506347656	-1264.751708984375	405.3233337402344	-408.9100646972656	-1119.823364257812	42.53313446044922	-499.1385192871094	-1181.617797851562	31.22722053527832	-538.6670532226562	-1214.142578125	37.93270492553711	-422.2216491699219	-1408.83544921875	30.2824592590332	-483.7236328125	-1138.506591796875	759.841064453125	-767.605224609375	
64	0.63	-1320.563842773438	1126.443969726562	-510.175048828125	-1319.65869140625	1126.382446289062	-644.6575317382812	-1327.3095703125	1156.380126953125	-579.826171875	-1111.082885742188	1356.810424804688	-580.3004760742188	-1365.286743164062	1307.164428710938	-582.457763671875	-1330.667602539062	1599.6650390625	-600.8883666992188	-1147.767333984375	1491.7724609375	-587.8970336914062	-1387.17041015625	1417.333862304688	-509.6298217773438	-1335.9169921875	1578.071411132812	-702.8467407226562	-1248.757934570312	1561.62646484375	-769.8325805664062	-1269.448852539062	1428.028076171875	-836.635009765625	-1254.667846679688	1206.601318359375	-849.5787963867188	-1319.618041992188	1196.149291992188	-791.5845336914062	-1152.156372070312	952.3534545898438	-796.5709838867188	-1232.6904296875	924.52978515625	-822.078857421875	-1237.214721679688	1090.440795898438	-848.9844970703125	-1202.553344726562	850.0397338867188	-819.1582641601562	-1136.342407226562	863.820556640625	-803.569580078125	-1278.535034179688	1584.468383789062	-418.6290588378906	-1297.693237304688	1513.107788085938	-353.1343078613281	-1309.133666992188	1217.71630859375	-326.392578125	-1317.250244140625	1216.252563476562	-423.1857604980469	-1168.333740234375	973.6922607421875	-339.5630798339844	-1242.4482421875	957.5773315429688	-307.0528259277344	-1286.624267578125	1144.625732421875	-310.4448547363281	-1145.408813476562	779.130615234375	-356.3524475097656	-1140.155639648438	865.1288452148438	-333.6893310546875	-1206.5166015625	857.5858764648438	-302.4427185058594	-1307.893920898438	1760.161743164062	-523.1710815429688	-1149.728393554688	1847.617309570312	-648.7747802734375	-1154.615478515625	1849.273071289062	-519.0977783203125	-1311.161865234375	1761.548461914062	-658.8466796875	-1229.406616210938	1035.207275390625	-750.7592163085938	-1197.200317382812	1030.320434570312	-391.005615234375	-1113.631225585938	1100.297485351562	-442.0526123046875	-1120.663940429688	1098.3203125	-709.4515991210938	-1218.000366210938	533.3430786132812	-716.3925170898438	-1234.415283203125	679.8909301757812	-745.216064453125	-1349.837036132812	35.68893432617188	-703.9160766601562	-1328.1923828125	290.417236328125	-738.180419921875	-1117.980590820312	36.0665397644043	-645.9044189453125	-1200.958618164062	40.62405776977539	-613.9568481445312	-1224.5615234375	33.09956741333008	-730.0560913085938	-1417.79833984375	37.05765533447266	-641.6250610351562	-1232.162719726562	536.7833251953125	-421.3095397949219	-1191.516479492188	814.1792602539062	-396.9502563476562	-1349.047485351562	28.05032920837402	-437.3154296875	-1264.488647460938	405.3581237792969	-409.1777648925781	-1119.831176757812	42.52947616577148	-499.1273193359375	-1181.646728515625	31.25163459777832	-538.6507568359375	-1214.161376953125	37.91921234130859	-422.2044982910156	-1408.862670898438	30.26952362060547	-483.7233276367188	-1136.970581054688	760.0840454101562	-768.1299438476562	
65	0.64	-1319.968994140625	1126.484741210938	-510.9997863769531	-1319.06103515625	1126.37548828125	-645.4866943359375	-1326.751708984375	1156.41650390625	-580.6698608398438	-1110.336791992188	1356.578735351562	-581.092041015625	-1364.587768554688	1307.210205078125	-583.286865234375	-1329.6806640625	1599.726196289062	-601.6447143554688	-1146.890747070312	1491.621826171875	-588.6446533203125	-1386.353393554688	1417.378784179688	-510.4521484375	-1334.9580078125	1578.140747070312	-703.616943359375	-1247.763916015625	1561.637939453125	-770.5728149414062	-1268.539672851562	1428.083862304688	-837.4194946289062	-1253.75146484375	1206.647583007812	-850.4402465820312	-1318.816772460938	1196.165893554688	-792.5645751953125	-1150.9482421875	952.5859375	-797.236083984375	-1231.376953125	924.6047973632812	-822.8548583984375	-1236.188842773438	1090.482299804688	-849.8211059570312	-1201.096313476562	850.1666259765625	-819.8630981445312	-1134.922973632812	864.0996704101562	-804.1640625	-1277.572143554688	1584.378540039062	-419.3748168945312	-1296.839111328125	1513.039184570312	-353.9219970703125	-1308.493286132812	1217.64208984375	-327.2262268066406	-1316.554809570312	1216.215576171875	-424.0132751464844	-1167.7890625	973.5599975585938	-340.4446411132812	-1241.957153320312	957.4694213867188	-307.9534912109375	-1286.013793945312	1144.540405273438	-311.289794921875	-1145.001831054688	778.9730224609375	-357.2950439453125	-1139.631713867188	864.9807739257812	-334.5989990234375	-1206.08740234375	857.4698486328125	-303.3695983886719	-1306.6123046875	1760.224609375	-523.8435668945312	-1148.3056640625	1847.4765625	-649.4064331054688	-1153.193115234375	1849.076904296875	-519.730224609375	-1309.885986328125	1761.683227539062	-659.5224609375	-1229.050903320312	1035.122680664062	-751.6167602539062	-1196.7216796875	1030.313842773438	-391.8169860839844	-1113.024780273438	1100.116943359375	-442.8495788574219	-1120.140502929688	1098.150390625	-710.2627563476562	-1217.625	533.2159423828125	-716.7420043945312	-1233.968994140625	679.73193359375	-745.7398681640625	-1349.823364257812	35.68032455444336	-703.9248657226562	-1327.89404296875	290.2666931152344	-738.39404296875	-1118.021606445312	36.05957794189453	-645.8938598632812	-1201.090087890625	40.54865646362305	-613.9303588867188	-1224.549072265625	33.12203598022461	-730.017578125	-1417.802368164062	37.05857849121094	-641.6634521484375	-1231.779296875	536.7283935546875	-421.6806945800781	-1191.224243164062	814.1172485351562	-397.5886840820312	-1349.077392578125	28.03025054931641	-437.3031005859375	-1264.20458984375	405.3789367675781	-409.4332580566406	-1119.84375	42.53081893920898	-499.0970764160156	-1181.679077148438	31.28999710083008	-538.6226806640625	-1214.189453125	37.90086364746094	-422.1785888671875	-1408.899658203125	30.24912452697754	-483.7236938476562	-1135.432495117188	760.33203125	-768.677001953125	
66	0.65	-1319.378540039062	1126.5263671875	-511.8590698242188	-1318.455078125	1126.371948242188	-646.3460083007812	-1326.146118164062	1156.45751953125	-581.5320434570312	-1109.584350585938	1356.337280273438	-581.9152221679688	-1363.86767578125	1307.26318359375	-584.1404418945312	-1328.646118164062	1599.786987304688	-602.409423828125	-1145.964477539062	1491.462280273438	-589.4127197265625	-1385.524780273438	1417.4521484375	-511.310302734375	-1333.97607421875	1578.220581054688	-704.40771484375	-1246.763671875	1561.663452148438	-771.3469848632812	-1267.601806640625	1428.148681640625	-838.2283325195312	-1252.826538085938	1206.7001953125	-851.3399658203125	-1318.010620117188	1196.193603515625	-793.590576171875	-1149.735107421875	952.8150024414062	-797.9214477539062	-1230.055419921875	924.6822509765625	-823.67138671875	-1235.154418945312	1090.5302734375	-850.6953125	-1199.637573242188	850.297119140625	-820.6060180664062	-1133.502319335938	864.383056640625	-804.7786865234375	-1276.567993164062	1584.296997070312	-420.1408081054688	-1295.947265625	1512.979614257812	-354.7308349609375	-1307.84326171875	1217.56787109375	-328.0871887207031	-1315.812744140625	1216.18310546875	-424.8605346679688	-1167.228149414062	973.423828125	-341.3238830566406	-1241.456420898438	957.36962890625	-308.859375	-1285.365600585938	1144.465209960938	-312.1433410644531	-1144.5947265625	778.818359375	-358.2328491210938	-1139.116821289062	864.8505859375	-335.5081176757812	-1205.643310546875	857.3512573242188	-304.2926025390625	-1305.28125	1760.277709960938	-524.5337524414062	-1146.823852539062	1847.333984375	-650.049560546875	-1151.729125976562	1848.876220703125	-520.3890380859375	-1308.54736328125	1761.80322265625	-660.2035522460938	-1228.687866210938	1035.041381835938	-752.5109252929688	-1196.209350585938	1030.303588867188	-392.639892578125	-1112.383056640625	1099.9189453125	-443.6771545410156	-1119.61572265625	1097.971801757812	-711.099609375	-1217.22509765625	533.0764770507812	-717.1062622070312	-1233.506958007812	679.5615234375	-746.2899169921875	-1349.811767578125	35.6704216003418	-703.9370727539062	-1327.5712890625	290.1148681640625	-738.6328735351562	-1118.065185546875	36.0555305480957	-645.8826904296875	-1201.2265625	40.47478485107422	-613.8944091796875	-1224.534057617188	33.14583587646484	-729.9769897460938	-1417.809204101562	37.06105422973633	-641.7106323242188	-1231.3349609375	536.6769409179688	-422.0567932128906	-1190.90771484375	814.0491943359375	-398.2456665039062	-1349.119140625	28.00171089172363	-437.2861328125	-1263.88671875	405.3778991699219	-409.6829223632812	-1119.863647460938	42.54598236083984	-499.0409240722656	-1181.714721679688	31.35192489624023	-538.5801391601562	-1214.229248046875	37.87815093994141	-422.1420593261719	-1408.947509765625	30.22162055969238	-483.7243347167969	-1133.892578125	760.578369140625	-769.2553100585938	
